<svg width="25" height="24" viewBox="0 0 25 24" fill="none" xmlns="http://www.w3.org/2000/svg">
<path d="M22.7144 8.71004C22.7144 10.13 22.1644 11.46 21.1644 12.46L13.3144 20.31C13.2744 20.35 13.1644 20.44 13.1144 20.47C12.9944 20.55 12.8544 20.59 12.7144 20.59C12.5744 20.59 12.4244 20.55 12.3044 20.47C12.2444 20.43 12.1944 20.39 12.1344 20.33L4.27435 12.46C3.26435 11.46 2.71436 10.13 2.71436 8.71004C2.71436 7.29004 3.26435 5.96004 4.27435 4.96004C6.34435 2.90004 9.70435 2.90004 11.7744 4.96004L12.7144 5.91004L13.6644 4.96004C15.7344 2.90004 19.0944 2.90004 21.1544 4.96004C22.1644 5.96004 22.7144 7.29004 22.7144 8.71004Z" fill="#F34545"/>
</svg>
